<?xml version="1.0" encoding="UTF-8"?>
<!DOCTYPE svg PUBLIC "-//W3C//DTD SVG 1.1//EN" "http://www.w3.org/Graphics/SVG/1.1/DTD/svg11.dtd">
<!-- Creator: CorelDRAW -->
<svg xmlns="http://www.w3.org/2000/svg" xml:space="preserve" width="80mm" height="80mm" version="1.1" style="shape-rendering:geometricPrecision; text-rendering:geometricPrecision; image-rendering:optimizeQuality; fill-rule:evenodd; clip-rule:evenodd"
viewBox="0 0 8000 8000"
 xmlns:xlink="http://www.w3.org/1999/xlink"
 xmlns:xodm="http://www.corel.com/coreldraw/odm/2003">
 <defs>
  <style type="text/css">
   <![CDATA[
    .fil0 {fill:#3DB7EF}
    .fil2 {fill:#3E474A}
    .fil3 {fill:#47B353}
    .fil1 {fill:#FEFEFE}
   ]]>
  </style>
 </defs>
 <g id="Слой_x0020_1">
  <metadata id="CorelCorpID_0Corel-Layer"/>
  <circle class="fil0" cx="3995.27" cy="4004.73" r="4000"/>
  <path id="Fill-2" class="fil1" d="M6254.88 2229.79l-1894.21 -1124.39c-226.1,-134.22 -504.77,-134.22 -730.85,0l-1894.21 1124.39c-226.02,134.2 -365.32,382.2 -365.32,650.62l0 2248.81c0,268.35 139.3,516.45 365.4,650.67l1894.21 1124.19c113.02,67.15 239.1,100.63 365.37,100.63 126.22,0 252.27,-33.48 365.32,-100.63l1894.21 -1124.19c226.08,-134.22 365.45,-382.32 365.45,-650.67l0 -2248.81c0,-268.42 -139.37,-516.42 -365.37,-650.62z"/>
  <g>
   <path id="Fill-4" class="fil2" d="M3696.1 6788.96l-1894.22 -1124.19c-185.27,-110 -300.37,-315.2 -300.37,-535.6l0 -2248.73c0,-220.4 115.1,-425.57 300.32,-535.52l1894.27 -1124.4c90.82,-53.92 194.27,-82.42 299.17,-82.42 104.85,0 208.3,28.5 299.17,82.42l1894.21 1124.4c156.1,92.67 261.4,253.14 291.05,433.12 -62.85,-134.08 -204.52,-170.53 -369.62,-74.08l-1792.01 1106.87c-223.45,130.65 -388.22,277.22 -388.35,546.62l0 2208.14c-0.12,161.32 65.02,265.84 165.1,296.14 -32.88,5.68 -66.03,9.65 -99.55,9.65 -104.9,0 -208.35,-28.52 -299.17,-82.42l0 0zm2558.75 -4559.19l-1894.18 -1124.34c-113.05,-67.15 -239.25,-100.68 -365.4,-100.68 -126.2,0 -252.4,33.53 -365.45,100.68l-1894.21 1124.34c-226.02,134.2 -365.32,382.24 -365.32,650.67l0 2248.73c0,268.35 139.3,516.47 365.4,650.67l1894.18 1124.29c113.13,67.05 239.2,100.6 365.4,100.6 126.2,0 252.27,-33.55 365.32,-100.6l1894.26 -1124.29c226.1,-134.2 365.4,-382.32 365.4,-650.67l0 -2248.73c0,-268.43 -139.3,-516.47 -365.4,-650.67z"/>
  </g>
  <path id="Fill-6" class="fil3" d="M5758.33 5346.6l-471.69 282.29c-12.5,7.28 -21.7,15.48 -21.75,30.5l0 123.43c0,15.07 10.1,21.37 22.62,14.02l478.95 -291.1c12.5,-7.27 14.42,-21.25 14.47,-36.25l0 -108.87c0,-15.02 -10.1,-21.3 -22.6,-14.02z"/>
  <path id="Fill-8" class="fil1" d="M4753.91 4307.68c15.28,-7.75 27.85,1.77 28.05,21.75l1.58 163.17c68.35,-27.17 127.67,-34.45 181.45,-22.02 11.65,3.12 16.8,19 12.05,37.85l-35.93 144.57c-2.77,10.93 -8.92,21.98 -16.35,28.85 -3.1,3.05 -6.27,5.42 -9.45,7 -4.82,2.45 -9.6,3.25 -14.15,2.32 -24.55,-5.55 -82.87,-18.32 -174.7,28.18 -96.29,48.75 -129.97,132.42 -129.29,194.55 0.77,74.15 38.82,96.62 170.17,98.87 175.02,2.93 250.62,79.38 252.47,255.65 1.8,173.1 -90.6,358.97 -231.97,472.87l3.12 161.53c0.2,19.45 -12.45,41.75 -27.72,49.5l-95.65 55.07c-15.35,7.75 -27.9,-1.77 -28.1,-21.22l-1.65 -158.88c-81.95,34.05 -164.97,42.28 -218.02,20.98 -9.98,-3.9 -14.28,-18.68 -10.33,-35.48l34.68 -146.05c2.77,-11.5 8.85,-23 17.12,-30.35 2.9,-2.85 5.95,-5.02 9,-6.55 5.48,-2.77 10.85,-3.37 15.4,-1.65 57.15,19.25 130.25,10.25 200.55,-25.32 89.3,-45.2 149.05,-136.28 148.1,-226.75 -0.85,-82.1 -45.3,-116.22 -153.37,-117.02 -137.6,0.4 -265.85,-26.73 -267.95,-229.25 -1.73,-166.75 84.97,-340.25 222.25,-450l-1.73 -163.05c-0.2,-20.05 12.03,-42.07 27.78,-50l92.59 -59.12z"/>
 </g>
</svg>
