<?xml version="1.0" encoding="UTF-8"?>
<!DOCTYPE svg PUBLIC "-//W3C//DTD SVG 1.1//EN" "http://www.w3.org/Graphics/SVG/1.1/DTD/svg11.dtd">
<!-- Creator: CorelDRAW -->
<svg xmlns="http://www.w3.org/2000/svg" xml:space="preserve" width="80mm" height="80mm" version="1.1" style="shape-rendering:geometricPrecision; text-rendering:geometricPrecision; image-rendering:optimizeQuality; fill-rule:evenodd; clip-rule:evenodd"
viewBox="0 0 8000 8000"
 xmlns:xlink="http://www.w3.org/1999/xlink"
 xmlns:xodm="http://www.corel.com/coreldraw/odm/2003">
 <defs>
  <style type="text/css">
   <![CDATA[
    .str0 {stroke:#394D54;stroke-width:41.28;stroke-miterlimit:22.9256}
    .str1 {stroke:#394D54;stroke-width:89.96;stroke-linecap:round;stroke-miterlimit:22.9256}
    .fil5 {fill:none;fill-rule:nonzero}
    .fil0 {fill:#3DB7EF}
    .fil4 {fill:black;fill-rule:nonzero}
    .fil2 {fill:#00ACD3;fill-rule:nonzero}
    .fil6 {fill:#17B5EB;fill-rule:nonzero}
    .fil3 {fill:#20C2EF;fill-rule:nonzero}
    .fil1 {fill:#394D54;fill-rule:nonzero}
    .fil8 {fill:#D4EDF1;fill-rule:nonzero}
    .fil9 {fill:black;fill-rule:nonzero;fill-opacity:0.086275}
    .fil7 {fill:black;fill-rule:nonzero;fill-opacity:0.168627}
   ]]>
  </style>
   <clipPath id="id0" style="clip-rule:nonzero">
    <path d="M2480.05 1934.32l0 1352.63 -646.9 0 0 676.31 -541.62 0c-2.3,19.57 -4.16,39.2 -6.04,58.81 -33.86,368.48 30.47,708.3 178.26,998.86l49.61 89.13c29.74,53.43 64.44,103.59 101.08,152.54 36.6,48.89 49.57,75.94 72.59,108.43 390.76,439.19 973.26,650.59 1645.77,650.59 1489.31,0 2753.28,-659.8 3312.66,-2141.98 396.87,40.73 777.57,-61.04 951.06,-399.73 -276.36,-159.48 -631.56,-108.36 -836.2,-5.51l542.16 -1540.08 -2117.16 1352.63 -676.32 0 0 -1352.63 -2028.95 0z"/>
   </clipPath>
 </defs>
 <g id="Слой_x0020_1">
  <metadata id="CorelCorpID_0Corel-Layer"/>
  <circle class="fil0" cx="3995.27" cy="4004.72" r="4000"/>
  <path id="path14" class="fil1" d="M4582.14 3220.25l672.38 0 0 687.34 339.98 0c156.99,0 318.48,-27.97 467.16,-78.35 73.06,-24.77 155.05,-59.25 227.11,-102.6 -94.91,-123.92 -143.37,-280.4 -157.63,-434.64 -19.37,-209.78 22.95,-482.84 164.93,-647.03l70.68 -81.75 84.22 67.7c212.05,170.37 390.38,408.42 421.82,679.8 255.33,-75.11 555.1,-57.34 780.16,72.55l92.33 53.28 -48.6 94.85c-190.34,371.48 -588.26,486.55 -977.28,466.19 -582.14,1449.92 -1849.51,2136.36 -3386.2,2136.36 -793.91,0 -1522.29,-296.78 -1937.08,-1001.16 -24.31,-43.75 -45.14,-89.51 -67.22,-134.44 -140.2,-310.05 -186.78,-649.71 -155.19,-989.09l9.48 -101.66 574.96 0 0 -687.34 672.38 0 0 -672.38 1344.75 0 0 -672.38 806.86 0 0 1344.75z"/>
  <g>
  </g>
  <g style="clip-path:url(#id0)">
   <g id="_3130693199040">
    <polygon id="path22" class="fil2" points="3887.35,1315.19 4470.08,1315.19 4470.08,1897.91 3887.35,1897.91 "/>
    <polygon id="path24" class="fil3" points="3887.35,1987.55 4470.08,1987.55 4470.08,2570.3 3887.35,2570.3 "/>
    <g>
     <path id="path26" class="fil4" d="M3958.9 1849.36l0 -485.64 0 485.64zm87.39 0l0 -485.64 0 485.64zm88.27 0l0 -485.64 0 485.64zm88.31 0l0 -485.64 0 485.64zm88.31 0l0 -485.64 0 485.64zm87.36 0l0 -485.64 0 485.64zm0 0l0 0 0 0z"/>
     <path id="_1" class="fil5 str0" d="M3958.9 1849.36l0 -485.64m87.39 485.64l0 -485.64m88.27 485.64l0 -485.64m88.31 485.64l0 -485.64m88.31 485.64l0 -485.64m87.36 485.64l0 -485.64m0 485.64l0 0 0 0z"/>
    </g>
    <g>
     <path class="fil4" d="M3958.9 2521.73l0 -485.65 0 485.65zm87.39 0l0 -485.65 0 485.65zm88.27 0l0 -485.65 0 485.65zm88.31 0l0 -485.65 0 485.65zm88.31 0l0 -485.65 0 485.65zm87.36 0l0 -485.65 0 485.65zm0 0l0 0 0 0z"/>
     <path id="_1_0" class="fil5 str0" d="M3958.9 2521.73l0 -485.65m87.39 485.65l0 -485.65m88.27 485.65l0 -485.65m88.31 485.65l0 -485.65m88.31 485.65l0 -485.65m87.36 485.65l0 -485.65m0 485.65l0 0 0 0z"/>
    </g>
    <polygon class="fil2" points="4559.73,2570.28 5142.46,2570.28 5142.46,1987.56 4559.73,1987.56 "/>
    <polygon class="fil3" points="4559.73,1897.92 5142.46,1897.92 5142.46,1315.17 4559.73,1315.17 "/>
    <g>
     <path class="fil4" d="M4631.28 2036.11l0 485.64 0 -485.64zm87.38 0l0 485.64 0 -485.64zm88.27 0l0 485.64 0 -485.64zm88.32 0l0 485.64 0 -485.64zm88.3 0l0 485.64 0 -485.64zm87.37 0l0 485.64 0 -485.64zm0 0l0 0 0 0z"/>
     <path id="_1_1" class="fil5 str0" d="M4631.28 2036.11l0 485.64m87.38 -485.64l0 485.64m88.27 -485.64l0 485.64m88.32 -485.64l0 485.64m88.3 -485.64l0 485.64m87.37 -485.64l0 485.64m0 -485.64l0 0 0 0z"/>
    </g>
    <g>
     <path class="fil4" d="M4631.28 1363.73l0 485.64 0 -485.64zm87.38 0l0 485.64 0 -485.64zm88.27 0l0 485.64 0 -485.64zm88.32 0l0 485.64 0 -485.64zm88.3 0l0 485.64 0 -485.64zm87.37 0l0 485.64 0 -485.64zm0 0l0 0 0 0z"/>
     <path id="_1_2" class="fil5 str0" d="M4631.28 1363.73l0 485.64m87.38 -485.64l0 485.64m88.27 -485.64l0 485.64m88.32 -485.64l0 485.64m88.3 -485.64l0 485.64m87.37 -485.64l0 485.64m0 -485.64l0 0 0 0z"/>
    </g>
    <polygon class="fil2" points="1197.85,2659.94 1780.59,2659.94 1780.59,3242.66 1197.85,3242.66 "/>
    <polygon class="fil3" points="1197.85,3332.3 1780.59,3332.3 1780.59,3915.05 1197.85,3915.05 "/>
    <g>
     <path class="fil4" d="M1269.4 3194.11l0 -485.65 0 485.65zm87.39 0l0 -485.65 0 485.65zm88.27 0l0 -485.65 0 485.65zm88.32 0l0 -485.65 0 485.65zm88.29 0l0 -485.65 0 485.65zm87.38 0l0 -485.65 0 485.65zm0 0l0 0 0 0z"/>
     <path id="_1_3" class="fil5 str0" d="M1269.4 3194.11l0 -485.65m87.39 485.65l0 -485.65m88.27 485.65l0 -485.65m88.32 485.65l0 -485.65m88.29 485.65l0 -485.65m87.38 485.65l0 -485.65m0 485.65l0 0 0 0z"/>
    </g>
    <g>
     <path class="fil4" d="M1269.4 3866.49l0 -485.65 0 485.65zm87.39 0l0 -485.65 0 485.65zm88.27 0l0 -485.65 0 485.65zm88.32 0l0 -485.65 0 485.65zm88.29 0l0 -485.65 0 485.65zm87.38 0l0 -485.65 0 485.65zm0 0l0 0 0 0z"/>
     <path id="_1_4" class="fil5 str0" d="M1269.4 3866.49l0 -485.65m87.39 485.65l0 -485.65m88.27 485.65l0 -485.65m88.32 485.65l0 -485.65m88.29 485.65l0 -485.65m87.38 485.65l0 -485.65m0 485.65l0 0 0 0z"/>
    </g>
    <polygon class="fil2" points="1870.22,3915.03 2452.96,3915.03 2452.96,3332.31 1870.22,3332.31 "/>
    <polygon class="fil3" points="1870.22,3242.67 2452.96,3242.67 2452.96,2659.92 1870.22,2659.92 "/>
    <g>
     <path class="fil4" d="M1941.77 3380.86l0 485.64 0 -485.64zm87.39 0l0 485.64 0 -485.64zm88.27 0l0 485.64 0 -485.64zm88.31 0l0 485.64 0 -485.64zm88.31 0l0 485.64 0 -485.64zm87.37 0l0 485.64 0 -485.64zm0 0l0 0 0 0z"/>
     <path id="_1_5" class="fil5 str0" d="M1941.77 3380.86l0 485.64m87.39 -485.64l0 485.64m88.27 -485.64l0 485.64m88.31 -485.64l0 485.64m88.31 -485.64l0 485.64m87.37 -485.64l0 485.64m0 -485.64l0 0 0 0z"/>
    </g>
    <g>
     <path class="fil4" d="M1941.77 2708.49l0 485.64 0 -485.64zm87.39 0l0 485.64 0 -485.64zm88.27 0l0 485.64 0 -485.64zm88.31 0l0 485.64 0 -485.64zm88.31 0l0 485.64 0 -485.64zm87.37 0l0 485.64 0 -485.64zm0 0l0 0 0 0z"/>
     <path id="_1_6" class="fil5 str0" d="M1941.77 2708.49l0 485.64m87.39 -485.64l0 485.64m88.27 -485.64l0 485.64m88.31 -485.64l0 485.64m88.31 -485.64l0 485.64m87.37 -485.64l0 485.64m0 -485.64l0 0 0 0z"/>
    </g>
    <polygon class="fil2" points="2542.6,2659.94 3125.34,2659.94 3125.34,3242.66 2542.6,3242.66 "/>
    <polygon class="fil3" points="2542.6,3332.3 3125.34,3332.3 3125.34,3915.05 2542.6,3915.05 "/>
    <g>
     <path class="fil4" d="M2614.15 3194.11l0 -485.65 0 485.65zm87.39 0l0 -485.65 0 485.65zm88.26 0l0 -485.65 0 485.65zm88.32 0l0 -485.65 0 485.65zm88.3 0l0 -485.65 0 485.65zm87.38 0l0 -485.65 0 485.65zm0 0l0 0 0 0z"/>
     <path id="_1_7" class="fil5 str0" d="M2614.15 3194.11l0 -485.65m87.39 485.65l0 -485.65m88.26 485.65l0 -485.65m88.32 485.65l0 -485.65m88.3 485.65l0 -485.65m87.38 485.65l0 -485.65m0 485.65l0 0 0 0z"/>
    </g>
    <g>
     <path class="fil4" d="M2614.15 3866.49l0 -485.65 0 485.65zm87.39 0l0 -485.65 0 485.65zm88.26 0l0 -485.65 0 485.65zm88.32 0l0 -485.65 0 485.65zm88.3 0l0 -485.65 0 485.65zm87.38 0l0 -485.65 0 485.65zm0 0l0 0 0 0z"/>
     <path id="_1_8" class="fil5 str0" d="M2614.15 3866.49l0 -485.65m87.39 485.65l0 -485.65m88.26 485.65l0 -485.65m88.32 485.65l0 -485.65m88.3 485.65l0 -485.65m87.38 485.65l0 -485.65m0 485.65l0 0 0 0z"/>
    </g>
    <polygon class="fil2" points="3214.98,3915.03 3797.72,3915.03 3797.72,3332.31 3214.98,3332.31 "/>
    <polygon class="fil3" points="3214.98,3242.67 3797.72,3242.67 3797.72,2659.92 3214.98,2659.92 "/>
    <g>
     <path class="fil4" d="M3286.53 3380.86l0 485.64 0 -485.64zm87.39 0l0 485.64 0 -485.64zm88.26 0l0 485.64 0 -485.64zm88.32 0l0 485.64 0 -485.64zm88.3 0l0 485.64 0 -485.64zm87.38 0l0 485.64 0 -485.64zm0 0l0 0 0 0z"/>
     <path id="_1_9" class="fil5 str0" d="M3286.53 3380.86l0 485.64m87.39 -485.64l0 485.64m88.26 -485.64l0 485.64m88.32 -485.64l0 485.64m88.3 -485.64l0 485.64m87.38 -485.64l0 485.64m0 -485.64l0 0 0 0z"/>
    </g>
    <g>
     <path class="fil4" d="M3286.53 2708.49l0 485.64 0 -485.64zm87.39 0l0 485.64 0 -485.64zm88.26 0l0 485.64 0 -485.64zm88.32 0l0 485.64 0 -485.64zm88.3 0l0 485.64 0 -485.64zm87.38 0l0 485.64 0 -485.64zm0 0l0 0 0 0z"/>
     <path id="_1_10" class="fil5 str0" d="M3286.53 2708.49l0 485.64m87.39 -485.64l0 485.64m88.26 -485.64l0 485.64m88.32 -485.64l0 485.64m88.3 -485.64l0 485.64m87.38 -485.64l0 485.64m0 -485.64l0 0 0 0z"/>
    </g>
    <polygon class="fil2" points="3887.35,2659.94 4470.08,2659.94 4470.08,3242.66 3887.35,3242.66 "/>
    <polygon class="fil3" points="3887.35,3332.3 4470.08,3332.3 4470.08,3915.05 3887.35,3915.05 "/>
    <g>
     <path class="fil4" d="M3958.9 3194.11l0 -485.65 0 485.65zm87.39 0l0 -485.65 0 485.65zm88.27 0l0 -485.65 0 485.65zm88.31 0l0 -485.65 0 485.65zm88.31 0l0 -485.65 0 485.65zm87.36 0l0 -485.65 0 485.65zm0 0l0 0 0 0z"/>
     <path id="_1_11" class="fil5 str0" d="M3958.9 3194.11l0 -485.65m87.39 485.65l0 -485.65m88.27 485.65l0 -485.65m88.31 485.65l0 -485.65m88.31 485.65l0 -485.65m87.36 485.65l0 -485.65m0 485.65l0 0 0 0z"/>
    </g>
    <g>
     <path class="fil4" d="M3958.9 3866.49l0 -485.65 0 485.65zm87.39 0l0 -485.65 0 485.65zm88.27 0l0 -485.65 0 485.65zm88.31 0l0 -485.65 0 485.65zm88.31 0l0 -485.65 0 485.65zm87.36 0l0 -485.65 0 485.65zm0 0l0 0 0 0z"/>
     <path id="_1_12" class="fil5 str0" d="M3958.9 3866.49l0 -485.65m87.39 485.65l0 -485.65m88.27 485.65l0 -485.65m88.31 485.65l0 -485.65m88.31 485.65l0 -485.65m87.36 485.65l0 -485.65m0 485.65l0 0 0 0z"/>
    </g>
    <polygon class="fil2" points="4559.73,3915.03 5142.46,3915.03 5142.46,3332.31 4559.73,3332.31 "/>
    <polygon class="fil3" points="4559.73,3242.67 5142.46,3242.67 5142.46,2659.92 4559.73,2659.92 "/>
    <g>
     <path class="fil4" d="M4631.28 3380.86l0 485.64 0 -485.64zm87.38 0l0 485.64 0 -485.64zm88.27 0l0 485.64 0 -485.64zm88.32 0l0 485.64 0 -485.64zm88.3 0l0 485.64 0 -485.64zm87.37 0l0 485.64 0 -485.64zm0 0l0 0 0 0z"/>
     <path id="_1_13" class="fil5 str0" d="M4631.28 3380.86l0 485.64m87.38 -485.64l0 485.64m88.27 -485.64l0 485.64m88.32 -485.64l0 485.64m88.3 -485.64l0 485.64m87.37 -485.64l0 485.64m0 -485.64l0 0 0 0z"/>
    </g>
    <g>
     <path class="fil4" d="M4631.28 2708.49l0 485.64 0 -485.64zm87.38 0l0 485.64 0 -485.64zm88.27 0l0 485.64 0 -485.64zm88.32 0l0 485.64 0 -485.64zm88.3 0l0 485.64 0 -485.64zm87.37 0l0 485.64 0 -485.64zm0 0l0 0 0 0z"/>
     <path id="_1_14" class="fil5 str0" d="M4631.28 2708.49l0 485.64m87.38 -485.64l0 485.64m88.27 -485.64l0 485.64m88.32 -485.64l0 485.64m88.3 -485.64l0 485.64m87.37 -485.64l0 485.64m0 -485.64l0 0 0 0z"/>
    </g>
   </g>
  </g>
  <path class="fil5" d="M2480.05 1934.32l0 1352.63 -646.9 0 0 676.31 -541.62 0c-2.3,19.57 -4.16,39.2 -6.04,58.81 -33.86,368.48 30.47,708.3 178.26,998.86l49.61 89.13c29.74,53.43 64.44,103.59 101.08,152.54 36.6,48.89 49.57,75.94 72.59,108.43 390.76,439.19 973.26,650.59 1645.77,650.59 1489.31,0 2753.28,-659.8 3312.66,-2141.98 396.87,40.73 777.57,-61.04 951.06,-399.73 -276.36,-159.48 -631.56,-108.36 -836.2,-5.51l542.16 -1540.08 -2117.16 1352.63 -676.32 0 0 -1352.63 -2028.95 0z"/>
  <g>
   <path id="path38" class="fil6" d="M6760.54 3474.54l0.03 -0.26 -0.03 0.26zm0.13 -1.15c44.37,-349.83 -217.42,-624.58 -379.86,-755.09 -187.39,216.65 -216.51,784.45 77.48,1023.52 -164.06,145.73 -509.81,277.83 -863.79,277.83l-4308.78 -0.01 5474.95 -546.25zm835.79 6.66c-276.3,-159.16 -631.39,-108.32 -835.91,-5.52l835.91 5.52zm-835.92 -5.51l729.98 158.55 -729.98 -158.55z"/>
  </g>
  <path id="path40" class="fil7" d="M1303.68 4534.7c711.24,511.35 1356.44,975.38 2067.59,1486.65 -12.82,0.1 -25.62,0.27 -38.47,0.27 -672.51,0 -1255.01,-211.4 -1645.77,-650.59 -23.02,-32.49 -35.99,-59.54 -72.59,-108.43 -36.64,-48.95 -71.34,-99.11 -101.08,-152.54l-49.61 -89.13c-76.24,-149.91 -130.28,-312.93 -160.07,-486.23z"/>
  <g>
   <path id="path42" class="fil8" d="M3515.71 6018.13c-397.82,-188.89 -616.23,-445.63 -737.77,-725.89l-1110.8 48.73 1848.57 677.16zm1.31 -0.04l2180.55 -769.65 -0.01 0.01 -2180.54 769.64z"/>
  </g>
  <path id="path44" class="fil9" d="M6787.89 3461.54l0 0.92c-613.42,790.68 -1493.28,1481.4 -2437.86,1844.25 -842.59,323.67 -1577.23,325.23 -2084.07,65.24 -54.58,-30.83 -108.08,-65.03 -161.73,-97.4 -371.58,-259.71 -580.89,-689.3 -563.3,-1255.23l-255.18 0 -0.26 2.75c-33.86,368.48 30.47,708.3 178.26,998.86l49.61 89.13c29.74,53.43 64.44,103.59 101.08,152.54 36.6,48.89 49.57,75.94 72.59,108.43 390.76,439.19 973.26,650.59 1645.77,650.59 1489.31,0 2753.28,-659.8 3312.66,-2141.98 396.87,40.73 777.57,-61.04 951.06,-399.73 -264.17,-152.44 -600.37,-112.45 -808.25,-18.79l-0.38 0.42z"/>
  <path id="path46" class="fil5 str1" d="M1586.88 5316.81c416.53,22.8 861.04,26.89 1248.79,-94.64"/>
  <path id="path48" class="fil8" d="M3249.59 5020.64c0,88.78 -71.97,160.74 -160.74,160.74 -88.79,0 -160.77,-71.97 -160.77,-160.74 0,-88.78 71.98,-160.77 160.77,-160.77 88.78,0 160.74,72.01 160.74,160.77z"/>
  <path id="path50" class="fil1" d="M3130.54 4913.27c-14.04,8.11 -23.53,23.31 -23.53,40.7 0,25.95 21.04,46.97 46.99,46.97 17.78,0 33.23,-9.87 41.21,-24.46 5.63,13.59 8.77,28.51 8.77,44.17 0,63.58 -51.55,115.12 -115.14,115.12 -63.57,0 -115.15,-51.55 -115.15,-115.12 0,-63.6 51.58,-115.17 115.15,-115.17 14.7,0 28.74,2.78 41.69,7.79l0.01 0z"/>
  <path id="path52" class="fil1" d="M245.28 4526.74l7478.5 0c-162.84,-41.31 -515.21,-97.1 -457.1,-310.51 -296.08,342.63 -1010.15,240.37 -1190.35,71.42 -200.68,291.05 -1368.94,180.43 -1450.42,-46.31 -251.58,295.24 -1031.15,295.24 -1282.74,0 -81.51,226.74 -1249.76,337.38 -1450.45,46.31 -180.21,168.94 -894.2,271.19 -1190.32,-71.43 58.11,213.4 -294.25,269.21 -457.12,310.52z"/>
 </g>
</svg>
