<?xml version="1.0" encoding="UTF-8"?>
<!DOCTYPE svg PUBLIC "-//W3C//DTD SVG 1.1//EN" "http://www.w3.org/Graphics/SVG/1.1/DTD/svg11.dtd">
<!-- Creator: CorelDRAW -->
<svg xmlns="http://www.w3.org/2000/svg" xml:space="preserve" width="80mm" height="80mm" version="1.1" style="shape-rendering:geometricPrecision; text-rendering:geometricPrecision; image-rendering:optimizeQuality; fill-rule:evenodd; clip-rule:evenodd"
viewBox="0 0 8000 8000"
 xmlns:xlink="http://www.w3.org/1999/xlink"
 xmlns:xodm="http://www.corel.com/coreldraw/odm/2003">
 <defs>
  <style type="text/css">
   <![CDATA[
    .fil0 {fill:#3DB7EF}
    .fil3 {fill:#212121;fill-rule:nonzero}
    .fil2 {fill:#263238;fill-rule:nonzero}
    .fil6 {fill:#455A64;fill-rule:nonzero}
    .fil5 {fill:#634703;fill-rule:nonzero}
    .fil1 {fill:#ECEFF1;fill-rule:nonzero}
    .fil4 {fill:#FFC107;fill-rule:nonzero}
   ]]>
  </style>
 </defs>
 <g id="Слой_x0020_1">
  <metadata id="CorelCorpID_0Corel-Layer"/>
  <circle class="fil0" cx="3995.28" cy="4004.72" r="4000"/>
  <polygon class="fil1" points="3301.63,2747.42 3317.63,3114.92 3062.03,3594.19 2662.59,4377.07 2582.7,5032.11 2870.25,5958.77 3525.29,6326.21 4515.89,6326.21 5442.49,5623.27 5857.93,4520.84 4899.33,3354.58 4627.73,2699.54 "/>
  <path class="fil2" d="M5570.32 3658.14c-255.6,-367.44 -463.33,-591.16 -575.16,-1054.49 -111.83,-463.33 31.95,-335.5 -63.88,-734.94 -47.95,-207.72 -127.84,-351.49 -207.72,-463.32 -95.89,-111.83 -207.73,-175.72 -271.61,-191.72 -143.78,-79.89 -479.33,-207.72 -894.71,16 -431.39,223.66 -383.44,702.99 -303.55,1677.53 0,63.89 -16,143.77 -47.95,207.72 -63.88,143.77 -175.72,271.61 -271.61,383.44 -111.83,159.78 -223.66,319.55 -303.55,495.27 -191.71,367.44 -367.43,830.76 -319.55,1006.54 79.89,-16 1086.43,1517.75 1086.43,1549.76 63.89,-16 335.5,-16 575.16,-16 335.49,-16.01 527.21,-31.95 798.82,31.94 0,-47.95 -16,-95.89 -16,-143.77 0,-95.89 16,-175.72 31.94,-287.61 16,-79.89 31.94,-159.78 47.95,-255.61 -159.78,143.77 -447.33,303.55 -718.94,351.5 -239.66,47.94 -639.04,-31.95 -830.76,-271.61 16,0 47.95,0 63.89,-16 47.94,-16.01 95.89,-31.95 111.83,-63.89 47.94,-79.89 16,-159.78 -16,-207.72 -31.95,-47.95 -271.61,-223.66 -383.44,-319.55 -111.83,-95.89 -175.72,-143.78 -239.67,-207.72 0,0 -95.89,-95.89 -127.83,-127.84 -31.94,-31.94 -47.94,-63.88 -63.89,-79.89 -31.94,-79.88 -47.94,-175.71 -31.94,-303.55 16,-175.71 79.89,-319.55 159.78,-479.33 31.94,-63.88 111.83,-191.71 111.83,-191.71 0,0 -271.61,671.04 -127.83,878.7 0,0 16,-207.72 79.88,-415.38 47.95,-143.77 127.84,-351.49 223.67,-463.32 95.83,-111.84 335.49,-527.22 351.49,-782.88 0,-111.84 16,-223.67 16,-303.55 -63.88,-63.89 1054.49,-223.67 1118.38,-47.95 16,63.89 239.66,639.05 367.43,942.6 63.89,143.77 143.78,271.6 191.72,431.38 47.95,175.72 79.89,415.38 79.89,655.05 0,47.94 0,127.83 -16,207.72 31.94,0 655.04,-671.05 -79.89,-1230.21 0,0 447.33,207.72 463.33,623.11 16,335.49 -127.84,607.1 -159.78,655.04 16,0 335.49,143.78 351.5,143.78 63.88,0 191.72,-47.95 191.72,-47.95 16,-47.94 63.88,-175.72 63.88,-223.66 111.95,-367.32 -159.65,-958.48 -415.26,-1325.91z"/>
  <ellipse class="fil1" cx="3541.3" cy="2284.16" rx="207.66" ry="319.49"/>
  <ellipse class="fil1" cx="4260.23" cy="2268.15" rx="271.61" ry="367.44"/>
  <ellipse class="fil3" transform="matrix(-0.757216 -5.9907 5.9907 -0.757216 3546.38 2319.99)" rx="31.75" ry="18.52"/>
  <ellipse class="fil3" cx="4244.29" cy="2332.04" rx="159.78" ry="207.66"/>
  <path class="fil4" d="M6369.14 5846.94c-63.88,-31.95 -175.72,-79.89 -271.61,-223.67 -47.94,-79.88 -31.94,-303.55 -111.83,-399.44 -47.94,-63.88 -111.83,-31.94 -127.83,-31.94 -143.77,31.94 -479.33,255.61 -702.99,0 -31.94,-31.94 -79.89,-79.89 -159.78,-79.89 -79.89,0 -111.83,31.95 -143.77,95.89 -31.94,63.95 -31.94,111.83 -31.94,271.61 0,127.83 0,271.61 -16.01,383.44 -31.94,271.61 -79.88,431.38 -79.88,591.16 0,175.72 47.94,287.61 111.83,335.49 47.94,47.95 127.83,79.89 303.55,79.89 175.71,0 287.61,-63.89 399.44,-175.72 79.89,-79.88 143.77,-111.83 367.43,-271.6 175.72,-111.84 447.33,-255.61 495.27,-303.55 31.95,-31.95 79.89,-47.95 79.89,-143.78 0.06,-80.01 -63.82,-111.95 -111.77,-127.89z"/>
  <path class="fil4" d="M3157.86 5894.82c-159.78,-255.6 -175.72,-303.55 -287.61,-463.33 -95.89,-159.77 -303.55,-463.32 -431.38,-463.32 -95.89,0 -143.78,47.94 -207.73,111.83 -63.88,63.89 -127.83,207.72 -239.66,287.61 -95.89,79.89 -367.44,63.88 -431.38,159.77 -63.89,95.89 63.88,239.67 63.88,479.33 0,95.89 -79.89,159.78 -95.89,223.67 -16,79.88 -31.94,127.83 0,191.72 63.89,95.89 143.78,127.83 686.99,239.66 287.61,63.89 559.16,223.66 734.94,239.66 175.71,16.01 479.32,0 479.32,-431.38 16.07,-255.67 -127.71,-319.55 -271.48,-575.22z"/>
  <path class="fil4" d="M3461.41 3003.09c-95.83,-63.95 -175.72,-127.83 -175.72,-223.66 0,-95.89 63.89,-127.84 159.78,-207.72 16,-16.01 191.72,-175.72 367.43,-175.72 175.72,0 383.44,111.83 463.33,143.77 143.78,31.95 287.61,63.89 271.61,175.72 -16,159.78 -31.95,191.72 -191.72,271.61 -111.83,31.94 -319.55,207.72 -463.33,207.72 -63.88,0 -159.77,0 -223.66,-16 -47.95,-15.94 -127.83,-95.83 -207.72,-175.72z"/>
  <path class="fil5" d="M3429.47 2875.26c31.94,31.94 79.88,63.88 127.83,79.88 31.94,16.01 79.89,31.95 79.89,31.95 63.88,0 111.83,0 143.77,0 79.89,0 191.72,-31.95 303.55,-95.89 111.83,-47.95 127.83,-79.89 207.72,-111.83 79.89,-47.95 159.78,-95.89 127.84,-111.84 -31.95,-16 -63.89,0 -175.72,63.89 -95.89,63.89 -175.72,95.89 -271.61,143.78 -47.94,16 -111.83,47.94 -159.78,47.94 -47.94,0 -95.89,0 -143.77,0 -47.95,0 -79.89,-16 -127.83,-31.94 -31.95,-16 -47.95,-31.95 -63.89,-31.95 -31.94,-16 -95.89,-79.88 -127.83,-95.89 0,0 -31.95,0 -16,16.01 47.88,47.94 63.88,63.94 95.83,95.89z"/>
  <path class="fil5" d="M3908.73 2523.76c16.01,31.94 47.95,31.94 63.89,47.95 16,16 31.94,16 31.94,16 16,-16 0,-47.95 -16,-47.95 0.06,-31.94 -79.83,-31.94 -79.83,-16z"/>
  <path class="fil5" d="M3653.13 2555.7c0,16.01 31.94,31.95 31.94,16.01 16,-16.01 31.94,-31.95 47.95,-31.95 31.94,-16 16,-31.94 -31.95,-31.94 -31.94,15.94 -31.94,31.94 -47.94,47.88z"/>
  <path class="fil6" d="M5202.88 5383.61c0,16 0,31.94 0,47.95 31.95,63.88 111.84,79.88 175.72,79.88 95.89,0 191.72,-63.88 239.67,-127.83 0,-16 16,-31.94 31.94,-47.94 31.94,-47.95 47.94,-79.89 63.89,-95.89 0,0 -16.01,-16.01 -16.01,-31.95 -16,-31.94 -63.88,-63.88 -127.83,-79.89 -47.94,-16 -127.83,-31.94 -159.78,-31.94 -143.77,-16 -223.66,31.94 -271.6,79.89 0,0 16,0 16,16 31.94,31.94 47.94,63.89 47.94,111.83 16.01,31.95 0.06,47.95 0.06,79.89z"/>
 </g>
</svg>
