<?xml version="1.0" encoding="UTF-8"?>
<!DOCTYPE svg PUBLIC "-//W3C//DTD SVG 1.1//EN" "http://www.w3.org/Graphics/SVG/1.1/DTD/svg11.dtd">
<!-- Creator: CorelDRAW -->
<svg xmlns="http://www.w3.org/2000/svg" xml:space="preserve" width="80mm" height="80mm" version="1.1" style="shape-rendering:geometricPrecision; text-rendering:geometricPrecision; image-rendering:optimizeQuality; fill-rule:evenodd; clip-rule:evenodd"
viewBox="0 0 8000 8000"
 xmlns:xlink="http://www.w3.org/1999/xlink"
 xmlns:xodm="http://www.corel.com/coreldraw/odm/2003">
 <defs>
  <style type="text/css">
   <![CDATA[
    .fil1 {fill:#006EF8}
    .fil0 {fill:#3DB7EF}
   ]]>
  </style>
 </defs>
 <g id="Слой_x0020_1">
  <metadata id="CorelCorpID_0Corel-Layer"/>
  <circle class="fil0" cx="3995.27" cy="4004.73" r="4000"/>
  <path class="fil1" d="M898.18 3945.98l1449.12 0c-98.81,147.55 -431.86,336.48 -612.72,410.2 -217.94,88.84 -594.26,200.71 -836.4,200.71l0 1591.19c261.37,0 762.02,-116.23 1002.95,-176.23 593.75,-147.88 1289.96,-518.26 1728.35,-956.78l389.15 -420.66c36.2,-39.17 1.56,-20.81 47.72,-37.52 -21.92,94.04 -152.27,307.68 -199.09,397.61l-610.72 1193.58 1875.33 0 1477.55 -2898.23c79.71,-160.31 158.84,-324.79 241.32,-483.23 45.9,-88.18 234.35,-408.66 241.7,-497.07l-1832.7 0c-60.4,114.15 -110.57,221.24 -175.04,336.42 -66.18,118.24 -108.22,234.65 -177.4,348.26 -68.92,113.2 -113.53,228.26 -177.89,347.77 -32.86,61.02 -57.33,100.14 -90.05,165.68 -17.08,34.22 -25.87,50.91 -42.34,85.52 -27.97,58.8 -26.65,67.49 -61.84,80.23l0.25 -1222.06c0.89,-65.68 19.01,-141.82 -42.87,-141.82l-1193.39 0c-52.09,0 -167.84,278.85 -194.17,331.5 -60.83,121.67 -116.4,232.8 -175.22,350.44l-302.62 606.63c-25.04,52.81 -15.87,61.72 -66.76,75.31l0 -1363.88 -1662.22 0 0 1676.43z"/>
 </g>
</svg>
