<?xml version="1.0" encoding="UTF-8"?>
<!DOCTYPE svg PUBLIC "-//W3C//DTD SVG 1.1//EN" "http://www.w3.org/Graphics/SVG/1.1/DTD/svg11.dtd">
<!-- Creator: CorelDRAW -->
<svg xmlns="http://www.w3.org/2000/svg" xml:space="preserve" width="80mm" height="80mm" version="1.1" style="shape-rendering:geometricPrecision; text-rendering:geometricPrecision; image-rendering:optimizeQuality; fill-rule:evenodd; clip-rule:evenodd"
viewBox="0 0 8000 8000"
 xmlns:xlink="http://www.w3.org/1999/xlink"
 xmlns:xodm="http://www.corel.com/coreldraw/odm/2003">
 <defs>
  <style type="text/css">
   <![CDATA[
    .fil0 {fill:#454341}
    .fil2 {fill:#464242}
    .fil1 {fill:#464342}
   ]]>
  </style>
 </defs>
 <g id="Слой_x0020_1">
  <metadata id="CorelCorpID_0Corel-Layer"/>
  <path class="fil0" d="M1135.78 2121.1c42.11,0 108.91,-3.88 147.88,1.46 73.86,10.12 350.05,-2.26 433.51,-6.76l139.43 -9.92c23.86,-2.68 49.84,0.54 73.91,-0.75 120.16,-6.48 246.42,-21.36 367.99,-21.36 61.13,0 117.34,62.27 117.34,122.67 0,33.51 -3.64,66.29 -22.12,95.22 -11.77,18.41 -23.5,30.32 -44.41,40.92 -42.51,21.55 -83.17,18.31 -139.21,26.14 -72.18,10.08 -241.64,24.4 -311.62,24.4 14.02,29.2 27.63,80.17 39.35,115.32 13.73,41.18 24.92,74.85 38.65,116.03 26.56,79.66 51.15,153.35 77.36,231.99 51.24,153.77 102.88,308.59 154.67,464.02l622.68 1857.45c51.79,155.43 103.43,310.25 154.67,464.02 26.2,78.64 50.8,152.33 77.36,231.99 15.16,45.46 75.17,202.72 77.99,236.69 14.72,-10.78 9.1,-7.44 15.59,-27.08 4.55,-13.75 7.16,-22.45 11.76,-36.25l632.01 -1901.45c14.32,-42.96 92.68,-260.19 92.68,-286 0,-22.84 -232.87,-638.23 -264.72,-732.66 -72.1,-213.84 -155.42,-425.55 -231.98,-637.39 -10.34,-28.61 -28.66,-64.64 -31.33,-96.68 -93.83,0 -206.51,-15.25 -299.64,-25.71 -73.29,-8.24 -139.45,-7.19 -171.72,-73.62 -44.88,-92.38 2.18,-210.02 114.01,-210.02 81.31,0 149.68,6.54 229.37,10.65 23.84,1.22 25.46,5.33 53.14,5.53l171.63 9.71c58.44,6.56 113.45,5.88 170.08,5.93 29.31,0.02 34.29,4.23 58.46,5.54 37.51,2.03 79.49,-0.71 117.58,-0.24l117.12 5.55c19.23,0 39.81,0.74 58.84,0.17 26.33,-0.79 26.67,-4.89 52.99,-5.68 40.46,-1.21 82.57,1.56 123.02,0.35l112.05 -5.3c27.51,-0.34 29.37,-4.29 53.1,-5.57 20.69,-1.12 43.36,1.17 64.05,0.05 23.74,-1.28 25.58,-5.25 53.1,-5.57 112.31,-1.32 231.09,-15.18 341.54,-21.15l80.02 0.03c61.13,0 117.34,62.27 117.34,122.67 0,30.18 -3.9,63.2 -18.02,88.64 -37.43,67.44 -108.3,63.4 -183.13,72.89 -41.19,5.22 -110.93,13.89 -156.17,14.51 -50.43,0.69 -110.11,10.64 -160.04,10.64 8.25,35.39 25.39,78.87 36.66,112.68 13.26,39.79 25.43,76.19 38.69,115.98l810.71 2421.45c26.81,80.45 342.12,994.04 346.01,1040.73 16.12,-11.82 17.91,-37.5 24.75,-60.58 7.4,-24.98 13.61,-43.82 20.94,-69.74 13.45,-47.55 25.67,-89.87 40.31,-135.69l329.36 -1094.71c85.55,-254.27 192.67,-624.97 192.67,-895.39 0,-265.31 -68.73,-548.67 -187.78,-766.94l-241.18 -420.18c-96.33,-162.84 -189.74,-350.67 -189.74,-551.63 0,-300.75 195.55,-559.62 475.36,-607.35 27.75,-4.74 43.12,-3.54 73.25,-6.9 38.13,-4.25 34.38,0.89 70.09,0.89 -16.84,-25.15 -93.05,-89.2 -122.63,-112.05 -310.86,-240.24 -523.21,-385.76 -891.52,-537.89 -174.82,-72.22 -360.13,-127.25 -544.32,-170.38 -167.71,-39.26 -345.61,-67.38 -521.59,-75.77 -23.71,-1.13 -25.66,-5.16 -53.17,-5.5l-516.13 12.32c-29.94,3.76 -72.85,9.19 -103.72,13.62 -349.96,50.3 -698.6,139.83 -1010.73,296 -27.76,13.89 -50.03,26.1 -78.2,39.14 -106.02,49.09 -208.3,110.55 -306.51,173.51 -26.03,16.69 -47.16,31.52 -73.55,49.12 -122.23,81.49 -291.41,209.54 -398.16,316.54 -49.4,49.52 -106.47,92.72 -151.77,146.92l-138.98 154.37c-67.71,72.66 -152.62,189.78 -208.28,271.74 -8.68,12.79 -14.63,22.57 -23.34,35.33 -11.24,16.48 -16.26,20.58 -25.66,38.34z"/>
  <path class="fil1" d="M197.07 4110.53l12.13 -430.55 23.6 -205.75c18.24,-138.31 42.37,-264.18 74.12,-389.91 31.64,-125.33 66.77,-236.02 106.79,-357.22 27.68,-83.81 62.47,-168.59 98.11,-248.58 68.88,-154.59 147.79,-308.51 234.85,-453.18 14.69,-24.41 30.4,-44.74 46.06,-71.28 70.26,-119.08 156.53,-231.32 242.45,-338.91l158.48 -188.21c15.74,-19.73 39.29,-40.38 58.13,-59.21 28.98,-28.96 51.72,-61.01 84.42,-86.25 42.46,-32.79 77.3,-76.94 117.99,-111.35 13.43,-11.36 16.11,-15.48 31.34,-27.33 22.13,-17.22 41.13,-36.72 62.52,-54.82 168.9,-142.88 349.71,-277.57 544.27,-383.78 26.77,-14.62 44.23,-26.38 71,-41l233.02 -119c250.87,-121.41 603.35,-240.28 872.87,-284.52 67.5,-11.08 128.97,-23.16 201.04,-33.64 100.69,-14.64 212.38,-27.68 316.46,-30.22l111.86 -5.48c211.15,0 407.05,4.67 615.73,34.98 203.67,29.57 375.84,71.35 569.43,123.93 183.18,49.76 411.51,144.13 582.06,228.65 175.39,86.91 350,188.48 507.97,302.74 23.33,16.87 41.92,30.94 65.21,46.8 48.18,32.79 152.46,113.12 197.1,154.9 19.14,17.91 39.24,36.77 59.18,52.83 13.95,11.24 18.32,15.36 31.54,27.13l316.71 317.99c18.73,23.19 33.84,41.14 53.8,63.54 10.03,11.25 13.33,17.31 24.05,29.28 51.95,58.02 108.33,134.73 152.89,199.13l204.8 317.9c59.47,98.32 107.63,202.31 159.29,304.73 155.48,308.24 276.76,741.78 317.41,1074.65l23.44 205.91c17.64,118.44 16.42,377.34 13.09,488.61l-22.44 265.57c-4.49,31.09 -9.49,73.8 -13.46,103.88 -34.58,262.23 -98.71,498.37 -179.62,743.1 -19.17,58 -41.27,110.17 -63.53,165.81 -12.14,30.32 -21.53,53.34 -34.26,83.08l-72.58 156.76c-13.84,27.47 -27.32,49.05 -40.97,76.37l-120.95 220.4c-15.84,26.58 -30.39,44.64 -46.09,71.25l-69.8 106.2c-9.29,13.34 -14.59,22.73 -23.69,34.98l-201.24 262.79c-50.45,64.85 -105.51,125.1 -163.59,183.09l-55.9 61.44c-20.83,20.96 -37.73,31.97 -58.79,53.22 -70.12,70.76 -162.35,157.6 -242.06,216.63 -23.74,17.58 -41.71,33.23 -65.52,51.81 -88.21,68.83 -178.53,130.9 -271.97,192.06l-144.87 89.81c-25.45,15.05 -45.94,26.61 -70.53,41.47 -122.26,73.87 -433.09,211.72 -557.77,252.94 -117.51,38.85 -233.73,83.32 -355.78,108.24 -131.5,26.86 -253.84,59.81 -387.94,76.08 -379.43,46.03 -664.45,56.01 -1054.73,2.05 -255.69,-35.35 -504.04,-101.93 -745.69,-182.36 -193.79,-64.5 -377.37,-153.07 -556.26,-249.11 -123.61,-66.35 -243.37,-142.44 -356.84,-224.52 -46.27,-33.46 -88.17,-62.26 -131.49,-97.85 -22.63,-18.59 -42.21,-33 -65.81,-51.53l-246.32 -217.71c-28.77,-28.82 -60.47,-52.94 -85.87,-84.79 -25.4,-31.83 -60.65,-58.18 -87.43,-88.59 -98.85,-112.26 -198.19,-227.75 -283.56,-351.13 -104.05,-150.37 -203.96,-302.44 -285.84,-466.2 -13.7,-27.39 -26.25,-49.23 -40.92,-76.42 -50.27,-93.22 -105.25,-223.57 -141.05,-322.98 -30.02,-83.35 -65.02,-172.01 -88.93,-257.75 -17.57,-63.05 -33.87,-119.76 -50.2,-184.47 -41.87,-165.94 -61.79,-314.13 -87.23,-488.81 -15.08,-103.61 -23.69,-224.08 -23.69,-328.32zm-186.68 -192.01l0 170.68c0,310.77 69.81,765.53 163.34,1052.72 21.05,64.63 34.81,124.83 59.11,186.23 12.07,30.51 22.59,61.02 32.94,89.74 11.01,30.55 22.33,56.47 34.93,87.74 12.86,31.93 22.28,58.08 35.18,87.49 12.46,28.42 26.13,55.58 37.93,84.74l78.95 161.06c95.85,171.48 155.34,286.08 277.64,458.4l212.61 278.08c99.17,122.48 209.55,235.24 324.83,341.87 11.85,10.95 20.39,20.42 31.91,32.09 93.28,94.38 228.58,198.43 335.1,278.27 141.53,106.09 293.17,202.7 448.47,287.56 28.8,15.74 49.67,27.42 80.06,42.62 299.06,149.53 556.76,253.28 887.21,334.18 627.53,153.63 1265.15,147.27 1892.26,-1.06 403.58,-95.46 855.59,-286.18 1200.11,-517.29 135.36,-90.8 260.52,-183.52 388.18,-283.86 14.51,-11.41 20.4,-19.1 34.22,-29.78 94.23,-72.82 301.36,-274.66 371.79,-358.92l57.99 -64.68c71.35,-92.24 151.24,-176.36 217.74,-272.95l284.84 -451.19c16.06,-26.41 27.68,-52.72 42.6,-80.08l79.56 -165.78c75.59,-176.81 147.42,-348.61 200.04,-536l74.58 -293.44c92.46,-392.15 110.16,-948.55 52.58,-1350.76 -21.13,-147.64 -42.2,-281.25 -74.91,-415.78 -46.91,-192.87 -105.63,-375.84 -178.36,-557.68 -44.84,-112.12 -95.78,-231.39 -153.49,-337.2 -123.41,-226.26 -181.1,-318.72 -327.44,-531.27 -57.6,-83.66 -124.75,-159.87 -188.03,-238.66 -10.7,-13.33 -19.25,-18.87 -30.54,-33.46 -61.76,-79.85 -165.57,-179.5 -238.26,-252.43 -22.79,-22.87 -41.98,-36.32 -64.03,-58.64 -10.43,-10.57 -18.46,-19.73 -29.35,-29.32l-167.34 -142.02c-23.67,-18.86 -45.09,-35.94 -68.69,-53.97 -23.14,-17.68 -45.74,-35.76 -69.28,-53.4 -23.59,-17.67 -46.11,-33.29 -70.83,-51.83 -70.18,-52.64 -149.53,-97.23 -222.52,-145.51 -74.27,-49.14 -155.81,-92.39 -234.61,-133.41 -412.97,-214.98 -839.77,-345.16 -1303.77,-413.64 -255.2,-37.67 -519.03,-36.52 -776.57,-29.15 -26.37,0.75 -29.7,4.79 -58.5,5.5 -204.63,5.12 -643.97,92.48 -824.7,151.35 -152.32,49.61 -304.34,99.67 -449.88,163.48 -28.42,12.47 -55.58,26.13 -84.74,37.94 -51.11,20.7 -110.04,54.04 -160.79,79.22l-385.04 228.32c-120.88,80.57 -240.77,166.88 -349.58,263.78 -12.66,11.27 -19.58,15.61 -32,26.67 -204.33,181.94 -320.74,302.27 -511.76,528.3 -56.6,66.96 -107.93,137.75 -157.32,210.69l-146.09 221.93c-16.88,27.44 -29.74,49.75 -45.99,76.68l-203.39 404.64c-77.96,162.27 -176.45,475.04 -215.79,642.92 -65.5,279.52 -113.11,568.84 -113.11,868.27z"/>
  <path class="fil1" d="M3029.21 7300.02l244.9 59.11c151.47,31.65 236.64,46.88 390.6,62.75 48.08,4.96 98.83,7.5 143.48,11.2 22.34,1.85 51.51,0.25 74.52,0.15 32.68,-0.13 41.24,4.8 69.04,5.64 56.92,1.7 99.23,-5.87 149.44,-5.58 257.77,1.48 670.19,-70.75 914.13,-152.59 35.29,-11.84 85.97,-25.26 115.32,-39.35 -35.14,-66.43 -234,-627.5 -271.34,-731.38 -10.8,-30.06 -22.54,-59.25 -33.34,-89.32 -68.68,-191.06 -173.91,-462.37 -234.67,-645.38l-99.91 -273.44c-54,-144.55 -112.81,-322.97 -167.67,-461.69 -12.18,-30.81 -21.67,-58.45 -32.4,-90.27 -49.35,-146.35 -119.77,-315.86 -168.06,-461.31 -10.46,-31.53 -21.78,-62.33 -34.22,-93.78 -7.16,-18.11 -25.16,-76.97 -35.77,-92.24 -3.38,14.5 -10.66,29.27 -15.38,43.29l-271.96 794.76c-10.92,32.79 -21.66,64.93 -31.96,96.05l-64 186.67c-10.35,31.24 -21.88,60.12 -32.04,90.63 -10.92,32.79 -21.67,64.93 -31.97,96.05 -10.87,32.84 -22.12,60.78 -33.39,94.61l-160.1 469.26c-22.34,59.59 -40.85,124.91 -64.01,186.68 -84.85,226.36 -170.48,518.54 -256.01,746.7 -11.29,30.12 -61.14,167.64 -63.23,192.78z"/>
  <path class="fil1" d="M575.75 3977.19l5.33 240.02c10.88,218.3 55.58,454.91 107.73,665.64 20.28,81.93 45.16,158.29 71.61,237.74 66.72,200.47 181.58,450.86 293.03,635.02 40.23,66.48 76.41,128.71 119.68,189.66 56.39,79.41 151.13,209.58 217.42,283.94 7.28,8.18 11.16,10.78 18.03,19.31 43.64,54.2 175.6,191.23 224.45,239.56 15.87,15.7 26.65,20.87 42.86,37.16l58.5 53.5c9.58,8.53 11.27,11.71 22.34,20.32l124.96 104.39c132,107.76 374.26,266.17 516.37,337 35.91,17.9 69.25,33.64 103.12,51.56 -2.1,-25.29 -14.23,-47.05 -22.01,-68.66l-280.04 -770.68c-46.66,-138.39 -106.89,-282.94 -151.96,-418.73l-307.13 -844.93c-53.49,-135.26 -98.97,-282.96 -152.47,-418.23l-51.11 -140.89c-8.56,-25.76 -15.87,-43.62 -25.27,-70.73l-77.4 -210.62c-84.01,-233.69 -192.85,-546.17 -279.76,-770.96l-268.13 -739.92c-3.26,-9.34 -2.48,-8.23 -6.04,-15.29 -4.37,-8.68 -5.24,-9.56 -10.76,-15.91l-115.09 300.93c-19.92,51.4 -31.99,104.85 -48.34,159.67 -76.45,256.45 -129.92,617.08 -129.92,910.13z"/>
  <path class="fil2" d="M7013.4 2654.46c0,301.9 -13.83,440.51 -77.92,722.12 -62.29,273.74 -166.21,514.14 -253.44,775.94 -27.94,83.87 -58.53,175.59 -89.22,257.46l-86.79 254.57c-141.26,424.06 -300.14,857.66 -441.33,1281.42 -57.23,171.79 -119.36,341.03 -175.97,512.06 -14.16,42.77 -29.39,82.58 -44.06,126.61 -14.21,42.64 -28.85,81.21 -44.01,126.67l-88.65 258.03c47.35,-11.04 307.73,-200.2 346.68,-229.35 121.86,-91.18 234.97,-196.49 345.52,-299.84l106.55 -112.13c15.19,-15.02 18.82,-22.5 32.01,-37.33l165.11 -197.57c96.22,-128.95 236.22,-334.29 309.14,-480.23 9.43,-18.86 15.4,-30.99 24.83,-49.84 17.54,-35.07 30.49,-62.19 46.29,-97.72 81.33,-182.83 93.19,-202.79 163.26,-412.77 24.93,-74.67 41.6,-146.48 63.8,-224.21 28.79,-100.78 79.05,-392.08 82.23,-493.8 1.33,-42.51 11.15,-88.47 10.71,-133.29l5.28 -234.73c0,-545.47 -138.71,-1055.38 -375.13,-1528.97l-46.22 -81.78 16.02 143.99c2.83,55.08 5.31,97.36 5.31,154.69z"/>
 </g>
</svg>
